<?xml version="1.0" encoding="UTF-8"?>
<svg width="310px" height="116px" viewBox="0 0 310 116" version="1.1" xmlns="http://www.w3.org/2000/svg" xmlns:xlink="http://www.w3.org/1999/xlink">
    <title>Burnside Logo - Primary Horizontal - white RGB Copy</title>
    <g id="Page-1" stroke="none" stroke-width="1" fill="none" fill-rule="evenodd">
        <g id="Burnside-Logo---Primary-Horizontal---white-RGB-Copy" transform="translate(0.4735, 0.8423)" fill="#014D43" fill-rule="nonzero">
            <path d="M112.043259,83.9160264 L112.071481,81.8310905 L112.071481,65.5714123 L112.043259,63.4864763 L116.985721,63.4864763 C120.756951,63.4864763 122.644329,65.5149673 122.644329,68.6582464 L122.644329,68.6864689 C122.644329,70.8878226 121.787071,72.256613 120.245418,73.1456212 L120.245418,73.2585112 C121.988156,74.0593241 123.102945,75.5445323 123.102945,77.8305535 L123.102945,77.8869984 C123.102945,81.8310905 120.961564,83.9160264 117.073917,83.9160264 L112.046787,83.9160264 L112.043259,83.9160264 Z M115.701598,71.6568852 L116.643524,71.6568852 C118.273372,71.6568852 118.98599,70.5420971 118.98599,69.000444 L118.98599,68.943999 C118.98599,67.4870133 118.241622,66.6862004 116.699969,66.6862004 L115.701598,66.6862004 L115.701598,71.6568852 Z M116.759941,80.7127746 C118.703765,80.7127746 119.303493,79.6544315 119.303493,77.7141357 L119.303493,77.6576908 C119.303493,75.8585074 118.530902,74.8566093 116.703496,74.8566093 L115.705126,74.8566093 L115.705126,80.7127746 L116.763469,80.7127746 L116.759941,80.7127746 Z" id="Shape"></path>
            <path d="M128.302937,79.8590445 C128.302937,80.6598574 128.302937,81.2031402 129.075528,81.2031402 C129.759923,81.2031402 130.331428,80.7762752 130.931156,80.3741048 L130.931156,70.8596001 L130.902933,68.7746641 L134.247298,68.7746641 L134.219075,70.8596001 L134.219075,81.8310905 L134.247298,83.9160264 L131.104019,83.9160264 L131.104019,82.2015106 L131.075796,82.2015106 C129.703478,83.4574111 128.705108,84.1453341 127.445679,84.1453341 C125.904026,84.1453341 125.018546,83.086991 125.018546,81.2031402 L125.018546,70.8596001 L124.990323,68.7746641 L128.334687,68.7746641 L128.306465,70.8596001 L128.306465,79.8590445 L128.302937,79.8590445 Z" id="Path"></path>
            <path d="M143.73358,68.6018014 L143.73358,72.2319183 C143.419605,72.1754734 143.077407,72.1472509 142.73521,72.1472509 C141.105361,72.1472509 140.191658,72.8034236 140.191658,74.5179395 L140.191658,81.8310905 L140.219881,83.9160264 L136.875516,83.9160264 L136.903739,81.8310905 L136.903739,70.8031551 L136.875516,68.7746641 L139.962351,68.7746641 L139.962351,70.9477953 L140.106991,70.9477953 C141.020694,69.4625872 142.248372,68.5488843 143.278492,68.5488843 C143.451355,68.5488843 143.62069,68.5771067 143.73358,68.6053292 L143.73358,68.6018014 Z" id="Path"></path>
            <path d="M150.933841,72.8316461 C150.933841,72.0308331 150.933841,71.4875503 150.16125,71.4875503 C149.476855,71.4875503 148.90535,71.9144154 148.305622,72.3165858 L148.305622,81.8310905 L148.333845,83.9160264 L144.98948,83.9160264 L145.017703,81.8310905 L145.017703,70.8596001 L144.98948,68.7746641 L148.132759,68.7746641 L148.132759,70.48918 L148.160982,70.48918 C149.5333,69.2332795 150.531671,68.5453564 151.791099,68.5453564 C153.332752,68.5453564 154.218232,69.6036996 154.218232,71.4875503 L154.218232,81.8310905 L154.246455,83.9160264 L150.902091,83.9160264 L150.930313,81.8310905 L150.930313,72.8316461 L150.933841,72.8316461 Z" id="Path"></path>
            <path d="M158.934915,79.0017865 C159.24889,80.6880799 160.049703,81.4006976 160.991628,81.4006976 C161.877109,81.4006976 162.275751,80.8291923 162.275751,80.1447971 C162.275751,79.1146765 161.446716,78.4585037 160.162593,77.6576908 L158.762052,76.8568778 C157.047536,75.7985347 156.190278,74.3697714 156.190278,72.5423656 C156.190278,70.5703196 157.763682,68.4853837 160.762321,68.4853837 C163.418762,68.4853837 164.90397,69.9141469 165.390808,72.3695029 L162.363947,72.9974532 C162.134639,72.0837503 161.707774,71.2829373 160.734098,71.2829373 C159.933285,71.2829373 159.390003,71.7697752 159.390003,72.4541704 C159.390003,73.2549834 159.933285,73.7382934 161.132741,74.5108839 L162.533282,75.3116968 C164.247797,76.3418175 165.560143,77.8834706 165.560143,79.9401841 C165.560143,82.4272904 163.902072,84.2264738 160.875211,84.2264738 C158.617412,84.2264738 156.387836,82.8541555 155.848081,79.626209 L158.934915,78.9982587 L158.934915,79.0017865 Z" id="Path"></path>
            <path d="M170.735441,68.7746641 L170.707218,70.8596001 L170.707218,81.8310905 L170.735441,83.9160264 L167.391077,83.9160264 L167.419299,81.8310905 L167.419299,70.8596001 L167.391077,68.7746641 L170.735441,68.7746641 Z M167.419299,63.4900041 L170.703691,63.4900041 L170.703691,66.3475306 L167.419299,66.3475306 L167.419299,63.4900041 Z" id="Shape"></path>
            <path d="M182.394854,63.4864763 L182.366632,65.5714123 L182.366632,81.8310905 L182.394854,83.9160264 L179.251575,83.9160264 L179.251575,82.6883484 L179.110463,82.6883484 C177.79459,83.7184691 177.025527,84.1453341 175.967184,84.1453341 C173.02499,84.1453341 173.02499,81.0585 173.02499,78.4020588 L173.02499,74.7437193 C173.02499,72.1719456 173.02499,68.5418286 176.111824,68.5418286 C177.141945,68.5418286 177.911007,68.9404712 179.08224,69.8577019 L179.08224,65.5714123 L179.054018,63.4864763 L182.398382,63.4864763 L182.394854,63.4864763 Z M176.309381,74.1157691 L176.309381,78.8888966 C176.309381,79.9190172 176.365826,81.3477805 177.593504,81.3477805 C178.136787,81.3477805 178.591875,81.0902503 179.078712,80.8327201 L179.078712,71.6886355 C178.53543,71.4593278 178.136787,71.3464379 177.766367,71.3464379 C176.309381,71.3464379 176.309381,73.2020662 176.309381,74.1192969 L176.309381,74.1157691 Z" id="Shape"></path>
            <path d="M187.908822,77.001518 L187.908822,77.9716659 C187.908822,80.1447971 187.908822,81.3442526 189.309363,81.3442526 C190.709903,81.3442526 190.738126,79.7708492 190.738126,78.7160339 L190.738126,78.6595889 L193.93785,78.6595889 L193.93785,78.7160339 C193.93785,80.5716622 193.510985,82.2297331 192.396197,83.2316312 C191.711802,83.8595815 190.738126,84.2017791 189.252918,84.2017791 C187.651292,84.2017791 186.765811,83.8031365 186.137861,83.2316312 C184.881961,82.0886206 184.62443,80.1447971 184.62443,77.3437156 L184.62443,75.3434471 C184.62443,72.5705881 184.881961,70.6302924 186.137861,69.4872818 C186.882229,68.8028866 187.880599,68.4889115 189.28114,68.4889115 C190.766348,68.4889115 191.680051,68.8311091 192.396197,69.4872818 C193.652097,70.6302924 193.93785,72.5141432 193.93785,75.3434471 L193.93785,77.001518 L187.908822,77.001518 Z M187.908822,74.5743844 L190.653458,74.5743844 L190.653458,74.489717 C190.653458,72.7187562 190.653458,71.3464379 189.252918,71.3464379 C187.852377,71.3464379 187.908822,72.6623112 187.908822,74.489717 L187.908822,74.5743844 Z" id="Shape"></path>
            <polygon id="Path" points="211.368761 63.4864763 211.340539 65.5714123 211.340539 81.8310905 211.368761 83.9160264 207.710422 83.9160264 207.738644 81.8310905 207.738644 74.8883596 204.196723 74.8883596 204.196723 81.8310905 204.224945 83.9160264 200.538383 83.9160264 200.566606 81.8310905 200.566606 65.5714123 200.538383 63.4864763 204.224945 63.4864763 204.196723 65.5714123 204.196723 71.6286627 207.738644 71.6286627 207.738644 65.5714123 207.710422 63.4864763 211.368761 63.4864763"></polygon>
            <path d="M217.457762,68.7746641 L217.42954,70.8596001 L217.42954,81.8310905 L217.457762,83.9160264 L214.113398,83.9160264 L214.14162,81.8310905 L214.14162,70.8596001 L214.113398,68.7746641 L217.457762,68.7746641 Z M214.14162,63.4900041 L217.426012,63.4900041 L217.426012,66.3475306 L214.14162,66.3475306 L214.14162,63.4900041 Z" id="Shape"></path>
            <path d="M223.627902,79.9754622 C223.22926,80.2612148 222.883534,80.6598574 222.883534,80.9456101 C222.883534,81.3160302 223.398595,81.4606704 224.167657,81.4888929 L226.538346,81.6017828 C228.993702,81.7146727 230.739968,82.7447934 230.739968,84.8297293 C230.739968,87.3168357 228.196417,88.8302664 224.312298,88.8302664 C221.712301,88.8302664 219.285168,88.1458711 219.285168,86.4313553 C219.285168,85.3447897 220.255316,84.5157542 221.712301,84.0606667 L221.712301,83.9477767 C220.625736,83.5773566 219.969563,83.0905188 219.969563,82.1485934 C219.969563,81.206668 220.682181,80.0636575 221.712301,79.3475119 L221.712301,79.234622 C220.428178,78.4055866 219.884896,76.8074884 219.884896,74.6908022 L219.884896,73.8335443 C219.884896,71.8614982 220.399956,70.432735 221.398326,69.5190321 C222.170917,68.8028866 223.141065,68.4889115 224.34052,68.4889115 C226.111481,68.4889115 227.198047,69.1733067 227.825997,70.0587871 L227.967109,70.0587871 C228.651505,68.6582464 229.88271,68.3724937 230.623551,68.6018014 L230.623551,72.0308331 C229.766293,71.9461657 229.166565,71.9179432 228.764394,72.2036958 C228.909035,72.7752011 228.937257,73.3749289 228.937257,73.9464342 L228.937257,74.6908022 C228.937257,76.8357109 228.365752,78.2045014 227.508494,79.0053143 C226.679458,79.7779048 225.56467,80.035435 224.449882,80.035435 C224.135907,80.035435 223.850155,80.035435 223.620847,79.97899 L223.627902,79.9754622 Z M226.083259,84.519282 L223.71257,84.4063921 C222.855312,84.8332571 222.484892,85.1507601 222.484892,85.5494027 C222.484892,86.120908 223.313927,86.4066606 224.971998,86.4066606 C227.085157,86.4066606 227.744857,85.9480452 227.744857,85.37654 C227.744857,84.8050347 227.201574,84.575727 226.086786,84.519282 L226.083259,84.519282 Z M223.024647,74.8601371 C223.024647,76.0313702 223.024647,77.2590482 224.45341,77.2590482 C225.797506,77.2590482 225.797506,76.0313702 225.797506,74.8601371 L225.797506,73.6324591 C225.797506,72.4894485 225.797506,71.2617705 224.45341,71.2617705 C223.024647,71.2617705 223.024647,72.4894485 223.024647,73.6606816 L223.024647,74.8601371 L223.024647,74.8601371 Z" id="Shape"></path>
            <path d="M232.401567,63.4864763 L235.745931,63.4864763 L235.717709,65.5714123 L235.717709,70.4009847 L235.745931,70.4009847 C236.973609,69.2579741 237.919062,68.5453564 239.203185,68.5453564 C240.773061,68.5453564 241.630319,69.6319221 241.630319,71.4875503 L241.630319,81.8310905 L241.658542,83.9160264 L238.314177,83.9160264 L238.3424,81.8310905 L238.3424,72.8316461 C238.3424,71.9743882 238.3424,71.4875503 237.569809,71.4875503 C236.857192,71.4875503 236.313909,71.9144154 235.714181,72.3165858 L235.714181,81.8310905 L235.742403,83.9160264 L232.398039,83.9160264 L232.426262,81.8310905 L232.426262,65.5714123 L232.398039,63.4864763 L232.401567,63.4864763 Z" id="Path"></path>
            <path d="M251.088379,78.2609463 C251.430576,80.1483249 252.287834,80.8609426 253.515512,80.8609426 C254.74319,80.8609426 255.402891,80.1447971 255.402891,79.0899818 C255.402891,77.9469712 254.658523,76.8604056 253.032202,75.6609501 L251.144824,74.2886318 C248.887025,72.6305609 247.916877,70.6867374 247.916877,68.5453564 C247.916877,65.3738549 250.090008,63.1442787 253.459067,63.1442787 C256.574124,63.1442787 258.373307,65.0316573 258.831923,68.2313813 L255.261778,68.7182192 C255.060693,67.3459009 254.489188,66.5450879 253.346177,66.5450879 C252.203167,66.5450879 251.631662,67.3176784 251.631662,68.3724937 C251.631662,69.6566167 252.545364,70.5738474 254.030573,71.6568852 L255.889729,73.000981 C258.03111,74.5708566 259.117675,76.5711251 259.117675,78.8853688 C259.117675,82.1697603 256.916322,84.2582241 253.48729,84.2582241 C250.058258,84.2582241 248.029767,82.2015106 247.542929,78.7442564 L251.084851,78.2574185 L251.088379,78.2609463 Z" id="Path"></path>
            <path d="M269.863386,78.0316387 L269.863386,78.0880836 C269.863386,80.3458823 269.521188,82.1732881 268.378178,83.2034087 C267.66556,83.8595815 266.635439,84.2017791 265.206676,84.2017791 C263.6368,84.2017791 262.691347,83.774914 262.091619,83.2316312 C260.779274,82.0603982 260.578189,79.774377 260.578189,77.3437156 L260.578189,75.3434471 C260.578189,72.9163136 260.779274,70.6302924 262.091619,69.4590593 C262.691347,68.9157765 263.6368,68.4889115 265.206676,68.4889115 C266.635439,68.4889115 267.66556,68.8311091 268.378178,69.4872818 C269.464743,70.4856522 269.778718,72.1437231 269.778718,74.2886318 L269.778718,74.3450768 L266.635439,74.3450768 L266.635439,74.2886318 C266.635439,72.7152284 266.635439,71.3464379 265.234899,71.3464379 C263.834358,71.3464379 263.86258,72.6623112 263.86258,74.7190247 L263.86258,77.9751937 C263.86258,79.9754622 263.86258,81.3477805 265.234899,81.3477805 C266.607217,81.3477805 266.663662,79.8625723 266.663662,78.0916114 L266.663662,78.0351665 L269.863386,78.0351665 L269.863386,78.0316387 Z" id="Path"></path>
            <path d="M271.920099,63.4864763 L275.264464,63.4864763 L275.236241,65.5714123 L275.236241,70.4009847 L275.264464,70.4009847 C276.492142,69.2579741 277.437595,68.5453564 278.721718,68.5453564 C280.295121,68.5453564 281.148851,69.6319221 281.148851,71.4875503 L281.148851,81.8310905 L281.177074,83.9160264 L277.83271,83.9160264 L277.860932,81.8310905 L277.860932,72.8316461 C277.860932,71.9743882 277.860932,71.4875503 277.088342,71.4875503 C276.375724,71.4875503 275.832441,71.9144154 275.232713,72.3165858 L275.232713,81.8310905 L275.260936,83.9160264 L271.916571,83.9160264 L271.944794,81.8310905 L271.944794,65.5714123 L271.916571,63.4864763 L271.920099,63.4864763 Z" id="Path"></path>
            <path d="M284.807191,83.2034087 C283.55129,82.0603982 283.29376,80.1447971 283.29376,77.3472434 L283.29376,75.3469749 C283.29376,72.5458935 283.55129,70.6338202 284.807191,69.4908096 C285.551559,68.8346369 286.493484,68.4924393 287.95047,68.4924393 C289.407456,68.4924393 290.349381,68.8346369 291.065526,69.4908096 C292.321427,70.6338202 292.60718,72.5494213 292.60718,75.3469749 L292.60718,77.3472434 C292.60718,80.1483249 292.293204,82.0321757 291.065526,83.2034087 C290.352909,83.887804 289.379233,84.2017791 287.95047,84.2017791 C286.521707,84.2017791 285.551559,83.887804 284.807191,83.2034087 Z M289.322788,77.9751937 L289.322788,74.7190247 C289.322788,72.6340887 289.322788,71.3464379 287.95047,71.3464379 C286.578152,71.3464379 286.578152,72.6305609 286.578152,74.7190247 L286.578152,77.9751937 C286.578152,80.0601297 286.578152,81.3477805 287.95047,81.3477805 C289.322788,81.3477805 289.322788,80.0601297 289.322788,77.9751937 Z" id="Shape"></path>
            <path d="M295.951544,83.2034087 C294.695643,82.0603982 294.438113,80.1447971 294.438113,77.3472434 L294.438113,75.3469749 C294.438113,72.5458935 294.695643,70.6338202 295.951544,69.4908096 C296.695912,68.8346369 297.637837,68.4924393 299.094823,68.4924393 C300.551809,68.4924393 301.493734,68.8346369 302.20988,69.4908096 C303.46578,70.6338202 303.751533,72.5494213 303.751533,75.3469749 L303.751533,77.3472434 C303.751533,80.1483249 303.437558,82.0321757 302.20988,83.2034087 C301.497262,83.887804 300.523586,84.2017791 299.094823,84.2017791 C297.66606,84.2017791 296.695912,83.887804 295.951544,83.2034087 Z M300.467141,77.9751937 L300.467141,74.7190247 C300.467141,72.6340887 300.467141,71.3464379 299.094823,71.3464379 C297.722505,71.3464379 297.722505,72.6305609 297.722505,74.7190247 L297.722505,77.9751937 C297.722505,80.0601297 297.722505,81.3477805 299.094823,81.3477805 C300.467141,81.3477805 300.467141,80.0601297 300.467141,77.9751937 Z" id="Shape"></path>
            <polygon id="Path" points="309.325473 63.4864763 309.297251 65.5714123 309.297251 81.8310905 309.325473 83.9160264 305.981109 83.9160264 306.009331 81.8310905 306.009331 65.5714123 305.981109 63.4864763 309.325473 63.4864763"></polygon>
            <polygon id="Path" points="118.072287 96.6725889 118.072287 111.817479 118.100509 113.902415 114.44217 113.902415 114.470392 111.817479 114.470392 96.6725889 110.868498 96.6725889 110.868498 93.4728649 121.698876 93.4728649 121.698876 96.6725889 118.068759 96.6725889"></polygon>
            <path d="M124.217733,106.987907 L124.217733,107.958054 C124.217733,110.131186 124.217733,111.330641 125.618273,111.330641 C127.018814,111.330641 127.047037,109.757238 127.047037,108.702422 L127.047037,108.645977 L130.246761,108.645977 L130.246761,108.702422 C130.246761,110.558051 129.819896,112.216122 128.705108,113.21802 C128.020712,113.84597 127.047037,114.188168 125.561828,114.188168 C123.960203,114.188168 123.074722,113.789525 122.446772,113.21802 C121.190871,112.075009 120.933341,110.131186 120.933341,107.330104 L120.933341,105.329836 C120.933341,102.556977 121.190871,100.616681 122.446772,99.4736704 C123.19114,98.7892752 124.18951,98.4753 125.590051,98.4753 C127.075259,98.4753 127.988962,98.8174976 128.705108,99.4736704 C129.961008,100.616681 130.246761,102.500532 130.246761,105.329836 L130.246761,106.987907 L124.217733,106.987907 L124.217733,106.987907 Z M124.217733,104.560773 L126.962369,104.560773 L126.962369,104.476106 C126.962369,102.705145 126.962369,101.332826 125.561828,101.332826 C124.161288,101.332826 124.217733,102.6487 124.217733,104.476106 L124.217733,104.560773 L124.217733,104.560773 Z" id="Shape"></path>
            <path d="M148.192732,93.4728649 L144.276863,101.099991 L148.418512,113.902415 L144.502643,113.902415 L141.673339,104.75833 L140.329243,107.358327 L140.329243,111.817479 L140.357465,113.902415 L136.670903,113.902415 L136.699126,111.817479 L136.699126,95.5578008 L136.670903,93.4728649 L140.357465,93.4728649 L140.329243,95.5578008 L140.329243,99.015055 C140.329243,99.6994503 140.30102,100.701348 140.272798,101.329299 L140.385688,101.329299 C140.727885,100.701348 141.130056,99.872313 141.472253,99.2161402 L144.245112,93.4728649 L148.189204,93.4728649 L148.192732,93.4728649 Z" id="Path"></path>
            <path d="M153.022305,109.845433 C153.022305,110.646246 153.022305,111.189529 153.794895,111.189529 C154.47929,111.189529 155.050796,110.762664 155.654051,110.360493 L155.654051,100.845989 L155.625829,98.7610527 L158.970193,98.7610527 L158.941971,100.845989 L158.941971,111.817479 L158.970193,113.902415 L155.826914,113.902415 L155.826914,112.187899 L155.798692,112.187899 C154.426373,113.4438 153.428003,114.131723 152.168575,114.131723 C150.626921,114.131723 149.741441,113.07338 149.741441,111.189529 L149.741441,100.845989 L149.713219,98.7610527 L153.057583,98.7610527 L153.02936,100.845989 L153.02936,109.845433 L153.022305,109.845433 Z" id="Path"></path>
            <path d="M168.364752,98.58819 L168.364752,102.218307 C168.050777,102.161862 167.70858,102.133639 167.366382,102.133639 C165.736533,102.133639 164.822831,102.789812 164.822831,104.504328 L164.822831,111.817479 L164.851053,113.902415 L161.506689,113.902415 L161.534911,111.817479 L161.534911,100.789544 L161.506689,98.7610527 L164.593523,98.7610527 L164.593523,100.934184 L164.738163,100.934184 C165.651866,99.4489757 166.883072,98.5352728 167.909665,98.5352728 C168.082527,98.5352728 168.251862,98.5634953 168.364752,98.5917178 L168.364752,98.58819 Z" id="Path"></path>
            <path d="M173.91047,98.4753 C177.367724,98.4753 178.337872,100.616681 178.337872,103.27665 L178.337872,111.821007 C178.337872,112.47718 178.450762,113.36266 178.538958,113.905943 L175.282788,113.905943 C175.198121,113.447327 175.169899,113.193325 175.109926,112.392512 L174.965286,112.392512 C173.709385,113.5073 172.795682,114.078806 171.395141,114.078806 C169.765293,114.078806 168.565837,112.706487 168.565837,110.593329 C168.565837,108.166195 169.535985,106.451679 172.566374,105.022916 C173.480077,104.596051 174.453753,104.222103 175.053481,103.992796 L175.053481,102.962675 C175.053481,102.133639 174.824173,101.219937 173.79758,101.219937 C172.682792,101.219937 172.425262,102.218307 172.368817,103.333095 L169.052675,103.333095 C169.225538,100.390901 170.710746,98.4753 173.91047,98.4753 L173.91047,98.4753 Z M175.053481,110.018296 L175.053481,106.134176 C173.568273,106.846794 172.023092,107.735802 172.023092,109.704321 C172.023092,110.589801 172.393512,111.048416 173.109657,111.048416 C173.65294,111.048416 174.309113,110.790886 175.053481,110.018296 Z" id="Shape"></path>
            <path d="M186.024971,113.189797 C184.769071,112.046787 184.511541,110.131186 184.511541,107.333632 L184.511541,105.333363 C184.511541,102.532282 184.769071,100.620209 186.024971,99.4771982 C186.769339,98.8210255 187.711265,98.4788278 189.16825,98.4788278 C190.625236,98.4788278 191.567161,98.8210255 192.283307,99.4771982 C193.539207,100.620209 193.82496,102.53581 193.82496,105.333363 L193.82496,107.333632 C193.82496,110.134713 193.510985,112.018564 192.283307,113.189797 C191.570689,113.874193 190.597014,114.188168 189.16825,114.188168 C187.739487,114.188168 186.769339,113.874193 186.024971,113.189797 Z M190.540569,107.961582 L190.540569,104.705413 C190.540569,102.620477 190.540569,101.332826 189.16825,101.332826 C187.795932,101.332826 187.795932,102.616949 187.795932,104.705413 L187.795932,107.961582 C187.795932,110.046518 187.795932,111.334169 189.16825,111.334169 C190.540569,111.334169 190.540569,110.046518 190.540569,107.961582 Z" id="Shape"></path>
            <path d="M198.710977,93.4728649 L202.252899,93.4728649 L203.625217,103.558875 C203.738107,104.38791 203.826303,105.386281 203.854525,106.187094 L203.967415,106.187094 C204.02386,105.386281 204.112055,104.38791 204.253168,103.558875 L205.854794,93.4728649 L208.998073,93.4728649 L210.627921,103.558875 C210.772561,104.38791 210.829006,105.386281 210.885451,106.187094 L210.998341,106.187094 C211.026564,105.386281 211.111231,104.38791 211.227649,103.558875 L212.62819,93.4728649 L216.113666,93.4728649 L212.88572,113.902415 L209.372021,113.902415 L207.71395,104.529023 C207.569309,103.699987 207.512864,102.701617 207.45642,101.900804 L207.34353,101.900804 C207.315307,102.701617 207.258862,103.699987 207.114222,104.529023 L205.427929,113.902415 L201.914229,113.902415 L198.714505,93.4728649 L198.710977,93.4728649 Z" id="Path"></path>
            <path d="M221.599411,98.4753 C225.056666,98.4753 226.026814,100.616681 226.026814,103.27665 L226.026814,111.821007 C226.026814,112.47718 226.139703,113.36266 226.227899,113.905943 L222.97173,113.905943 C222.887062,113.447327 222.85884,113.193325 222.798867,112.392512 L222.657755,112.392512 C221.401854,113.5073 220.484623,114.078806 219.08761,114.078806 C217.457762,114.078806 216.258307,112.706487 216.258307,110.593329 C216.258307,108.166195 217.228454,106.451679 220.258844,105.022916 C221.172546,104.596051 222.146222,104.222103 222.74595,103.992796 L222.74595,102.962675 C222.74595,102.133639 222.516642,101.219937 221.490049,101.219937 C220.375261,101.219937 220.117731,102.218307 220.061286,103.333095 L216.745144,103.333095 C216.918007,100.390901 218.403215,98.4753 221.602939,98.4753 L221.599411,98.4753 Z M222.742422,110.018296 L222.742422,106.134176 C221.257214,106.846794 219.715561,107.735802 219.715561,109.704321 C219.715561,110.589801 220.085981,111.048416 220.802126,111.048416 C221.345409,111.048416 222.001582,110.790886 222.74595,110.018296 L222.742422,110.018296 Z" id="Shape"></path>
            <path d="M231.801839,98.7610527 L231.773617,100.845989 L231.773617,111.817479 L231.801839,113.902415 L228.457475,113.902415 L228.485697,111.817479 L228.485697,100.845989 L228.457475,98.7610527 L231.801839,98.7610527 Z M228.485697,93.4763927 L231.770089,93.4763927 L231.770089,96.3339191 L228.485697,96.3339191 L228.485697,93.4763927 Z" id="Shape"></path>
            <path d="M237.661532,111.817479 L237.689755,113.902415 L234.345391,113.902415 L234.373613,111.817479 L234.373613,100.845989 L234.345391,98.7610527 L237.48867,98.7610527 L237.48867,100.475569 L237.516892,100.475569 C238.917433,99.1914456 239.915803,98.531745 241.118787,98.531745 C242.233575,98.531745 243.06261,99.0750278 243.43303,100.447346 L243.461253,100.447346 C244.717153,99.332558 245.719051,98.531745 247.119592,98.531745 C248.890553,98.531745 249.490281,99.8476183 249.490281,102.045444 L249.490281,111.817479 L249.518503,113.902415 L246.174139,113.902415 L246.202361,111.817479 L246.202361,102.818035 C246.202361,102.045444 246.202361,101.473939 245.401548,101.473939 C244.745376,101.473939 244.145648,101.900804 243.574143,102.302974 L243.574143,111.817479 L243.602365,113.902415 L240.258001,113.902415 L240.286223,111.817479 L240.286223,102.818035 C240.286223,102.045444 240.286223,101.473939 239.48541,101.473939 C238.829238,101.473939 238.257732,101.900804 237.658005,102.302974 L237.658005,111.817479 L237.661532,111.817479 Z" id="Path"></path>
            <path d="M256.489457,98.4753 C259.946711,98.4753 260.916859,100.616681 260.916859,103.27665 L260.916859,111.821007 C260.916859,112.47718 261.029749,113.36266 261.117944,113.905943 L257.861775,113.905943 C257.777107,113.447327 257.748885,113.193325 257.688912,112.392512 L257.544272,112.392512 C256.288371,113.5073 255.371141,114.078806 253.974128,114.078806 C252.344279,114.078806 251.144824,112.706487 251.144824,110.593329 C251.144824,108.166195 252.114972,106.451679 255.145361,105.022916 C256.059064,104.596051 257.032739,104.222103 257.632467,103.992796 L257.632467,102.962675 C257.632467,102.133639 257.403159,101.219937 256.376567,101.219937 C255.261778,101.219937 255.004248,102.218307 254.947803,103.333095 L251.631662,103.333095 C251.804524,100.390901 253.289732,98.4753 256.489457,98.4753 L256.489457,98.4753 Z M257.632467,110.018296 L257.632467,106.134176 C256.147259,106.846794 254.605606,107.735802 254.605606,109.704321 C254.605606,110.589801 254.976026,111.048416 255.692171,111.048416 C256.235454,111.048416 256.891627,110.790886 257.635995,110.018296 L257.632467,110.018296 Z" id="Shape"></path>
            <path d="M266.691884,98.7610527 L266.663662,100.845989 L266.663662,111.817479 L266.691884,113.902415 L263.34752,113.902415 L263.375742,111.817479 L263.375742,100.845989 L263.34752,98.7610527 L266.691884,98.7610527 Z M263.37927,93.4763927 L266.663662,93.4763927 L266.663662,96.3339191 L263.37927,96.3339191 L263.37927,93.4763927 Z" id="Shape"></path>
            <path d="M276.093499,98.58819 L276.093499,102.218307 C275.779524,102.161862 275.437326,102.133639 275.095129,102.133639 C273.46528,102.133639 272.551577,102.789812 272.551577,104.504328 L272.551577,111.817479 L272.5798,113.902415 L269.235436,113.902415 L269.263658,111.817479 L269.263658,100.789544 L269.235436,98.7610527 L272.32227,98.7610527 L272.32227,100.934184 L272.46691,100.934184 C273.380613,99.4489757 274.611819,98.5352728 275.638411,98.5352728 C275.811274,98.5352728 275.980609,98.5634953 276.097027,98.5917178 L276.093499,98.58819 Z" id="Path"></path>
            <path d="M280.609096,98.7610527 L280.580874,100.845989 L280.580874,111.817479 L280.609096,113.902415 L277.264732,113.902415 L277.292955,111.817479 L277.292955,100.845989 L277.264732,98.7610527 L280.609096,98.7610527 Z M277.292955,93.4763927 L280.577346,93.4763927 L280.577346,96.3339191 L277.292955,96.3339191 L277.292955,93.4763927 Z" id="Shape"></path>
            <polygon id="Path" points="283.064452 103.675293 288.634865 103.675293 288.634865 107.047879 283.064452 107.047879"></polygon>
            <path d="M294.438113,98.7610527 L294.409891,100.845989 L294.409891,111.817479 L294.438113,113.902415 L291.093749,113.902415 L291.121971,111.817479 L291.121971,100.845989 L291.093749,98.7610527 L294.438113,98.7610527 Z M291.121971,93.4763927 L294.406363,93.4763927 L294.406363,96.3339191 L291.121971,96.3339191 L291.121971,93.4763927 Z" id="Shape"></path>
            <path d="M303.839728,98.58819 L303.839728,102.218307 C303.525753,102.161862 303.183555,102.133639 302.841358,102.133639 C301.211509,102.133639 300.297806,102.789812 300.297806,104.504328 L300.297806,111.817479 L300.326029,113.902415 L296.981665,113.902415 L297.009887,111.817479 L297.009887,100.789544 L296.981665,98.7610527 L300.068499,98.7610527 L300.068499,100.934184 L300.209611,100.934184 C301.123314,99.4489757 302.35452,98.5352728 303.381113,98.5352728 C303.553975,98.5352728 303.72331,98.5634953 303.839728,98.5917178 L303.839728,98.58819 Z" id="Path"></path>
            <path d="M308.355325,98.7610527 L308.327103,100.845989 L308.327103,111.817479 L308.355325,113.902415 L305.010961,113.902415 L305.039184,111.817479 L305.039184,100.845989 L305.010961,98.7610527 L308.355325,98.7610527 Z M305.039184,93.4763927 L308.323575,93.4763927 L308.323575,96.3339191 L305.039184,96.3339191 L305.039184,93.4763927 Z" id="Shape"></path>
            <path d="M17.8048592,113.888304 L17.8048592,56.7695253 C17.8048592,54.9738698 17.0922415,53.2558261 15.8222297,51.9858143 L0.857257932,37.0208425 C0.522115942,38.3120212 0.236363298,39.6208388 3.55271368e-15,40.9472955 L14.421689,55.3689845 L14.421689,113.888304 L17.8048592,113.888304 Z" id="Path"></path>
            <path d="M21.4773098,44.8137758 C20.2072981,46.0837875 19.4946804,47.8018312 19.4946804,49.5974867 L19.4946804,51.5801161 L31.9478512,39.1269454 L29.5559957,36.7350899 L21.4773098,44.8137758 L21.4773098,44.8137758 Z" id="Path"></path>
            <path d="M17.8048592,49.5974867 C17.8048592,47.8018312 17.0922415,46.0837875 15.8222297,44.8137758 L2.60352409,31.5950701 C2.15196436,32.7627754 1.74626616,33.9481197 1.38290168,35.1546308 L17.8048592,51.5765883 L17.8048592,49.5939589 L17.8048592,49.5974867 Z" id="Path"></path>
            <path d="M21.4773098,37.6382094 C20.2072981,38.9082211 19.4946804,40.6262648 19.4946804,42.4219203 L19.4946804,44.4045497 L28.360068,35.5391622 L25.9682125,33.1473067 L21.473782,37.6417372 L21.4773098,37.6382094 Z" id="Path"></path>
            <path d="M17.8048592,42.4219203 C17.8048592,40.6262648 17.0922415,38.9082211 15.8222297,37.6382094 L4.82604465,26.6420243 C4.27923404,27.7038952 3.76770153,28.7904608 3.29497493,29.8946655 L17.8013314,44.4010219 L17.8013314,42.4183925 L17.8048592,42.4219203 Z" id="Path"></path>
            <path d="M21.4773098,51.9893421 C20.2072981,53.2593539 19.4946804,54.9773976 19.4946804,56.7730531 L19.4946804,113.891832 L22.8778506,113.891832 L22.8778506,55.3725123 L35.5356344,42.7147286 L33.1437789,40.3228731 L21.4773098,51.9893421 L21.4773098,51.9893421 Z" id="Path"></path>
            <path d="M21.9253418,7.57420897 C20.9728329,8.20568703 20.041491,8.8724432 19.1348437,9.56389405 L46.651765,37.0808153 L49.0436204,39.4726708 L49.0436204,37.4900413 C49.0436204,36.6715893 48.8954524,35.8707763 48.6132276,35.1193527 C48.2780856,34.2232889 47.7524418,33.3977812 47.0645188,32.7063304 L21.9288696,7.57068116 L21.9253418,7.57420897 Z M43.9106563,29.5595235 L46.3025118,31.951379 L43.9106563,29.5595235 Z" id="Shape"></path>
            <path d="M14.030102,14.0336298 C13.2328169,14.830915 12.4637542,15.6564226 11.722914,16.506625 L39.4761986,44.2599095 L45.6604503,50.4441612 L45.6604503,113.891832 L49.0436204,113.891832 L49.0436204,51.8447019 C49.0436204,50.0490464 48.3310027,48.3310027 47.060991,47.060991 L41.8680541,41.8680541 L14.0336298,14.0336298 L14.030102,14.0336298 Z" id="Path"></path>
            <path d="M52.7125433,39.8854246 C51.4425315,41.1554363 50.7299138,42.87348 50.7299138,44.6691355 L50.7299138,46.651765 L58.2547335,39.1269454 L55.862878,36.7350899 L52.7090155,39.8889524 L52.7125433,39.8854246 Z" id="Path"></path>
            <path d="M84.5263376,12.858869 C83.70083,12.0862785 82.8541555,11.3383827 81.9792585,10.6222372 L67.8256831,24.7758126 L70.2175386,27.167668 L84.5263376,12.858869 L84.5263376,12.858869 Z" id="Path"></path>
            <path d="M17.7942758,10.6222372 C16.9193788,11.3383827 16.0727043,12.0862785 15.2471966,12.858869 L43.060454,40.6721263 L49.0400926,46.651765 L49.0400926,44.6691355 C49.0400926,42.87348 48.3274749,41.1554363 47.0574632,39.8854246 L45.4523094,38.2802709 L17.7942758,10.6222372 L17.7942758,10.6222372 Z" id="Path"></path>
            <path d="M50.7334416,37.4935691 L50.7334416,39.4761986 L54.6704781,35.5391622 L52.2997895,33.1684736 C51.2908357,34.3785125 50.7334416,35.9095823 50.7334416,37.4970969 L50.7334416,37.4935691 Z" id="Path"></path>
            <path d="M80.6422184,9.56742186 C79.7355711,8.8724432 78.8042291,8.20921485 77.8517203,7.57773678 L64.2378999,21.1915572 L66.6297554,23.5834127 L80.6422184,9.57094967 L80.6422184,9.56742186 Z" id="Path"></path>
            <path d="M88.0506203,16.506625 C87.3097801,15.6564226 86.5371896,14.830915 85.7434322,14.0336298 L71.4134663,28.3635958 L73.8053218,30.7554512 L88.0541481,16.506625 L88.0506203,16.506625 Z" id="Path"></path>
            <path d="M52.7125433,47.060991 C51.4425315,48.3310027 50.7299138,50.0490464 50.7299138,51.8447019 L50.7299138,113.891832 L54.113084,113.891832 L54.113084,50.4441612 L54.113084,50.4441612 C54.113084,50.4441612 61.8425166,42.7147286 61.8425166,42.7147286 L59.4506612,40.3228731 L52.7125433,47.060991 Z" id="Path"></path>
            <path d="M40.6580151,0.00352781042 C39.338614,0.246946729 38.0368519,0.539754994 36.7562568,0.885480415 L46.2989839,10.4282076 L48.6908394,8.03635213 L40.6580151,0.00352781042 Z" id="Path"></path>
            <path d="M60.6501167,19.9921016 L58.2582613,22.3839571 L77.8869984,42.0126943 L80.2788539,44.4045497 L80.2788539,42.4219203 C80.2788539,41.6034683 80.1306859,40.8026553 79.848461,40.0512317 C79.513319,39.1551678 78.9876753,38.3296602 78.2997523,37.6382094 L60.6536445,19.9921016 L60.6501167,19.9921016 Z" id="Path"></path>
            <path d="M29.6688856,3.36200333 C28.5682088,3.84178555 27.4922266,4.35684587 26.4338835,4.9107121 L39.1234175,17.6002462 L41.515273,15.2083907 L29.6688856,3.36200333 Z" id="Path"></path>
            <path d="M76.8956837,113.888304 L80.2788539,113.888304 L80.2788539,56.7695253 C80.2788539,54.9738698 79.5662362,53.2558261 78.2962244,51.9858143 L73.1032875,46.7928774 L53.4745503,27.1641402 L51.0826949,29.5559957 L70.711432,49.1847329 L76.8956837,55.3689845 L76.8956837,113.888304 L76.8956837,113.888304 Z" id="Path"></path>
            <path d="M81.9686751,49.5974867 L81.9686751,51.5801161 L98.3906326,35.1581586 C98.0272681,33.9516475 97.6180421,32.7627754 97.1700102,31.5985979 L83.9513045,44.8173036 C82.6812928,46.0873153 81.9686751,47.805359 81.9686751,49.6010145 L81.9686751,49.5974867 Z" id="Path"></path>
            <path d="M34.8971007,1.41465198 C33.6976451,1.78507207 32.5158286,2.2013537 31.355179,2.65644125 L42.7112007,14.012463 L45.1030562,11.6206075 L34.8971007,1.41465198 Z" id="Path"></path>
            <path d="M57.0623335,23.5798848 L54.6704781,25.9717403 L74.2992152,45.6004775 L80.2788539,51.5801161 L80.2788539,49.5974867 C80.2788539,47.8018312 79.5662362,46.0837875 78.2962244,44.8137758 L76.6910707,43.208622 L57.0623335,23.5798848 L57.0623335,23.5798848 Z" id="Path"></path>
            <path d="M83.9477767,37.6382094 C82.677765,38.9082211 81.9651473,40.6262648 81.9651473,42.4219203 L81.9651473,44.4045497 L96.4715037,29.8981933 C95.9987771,28.7939886 95.4872446,27.707423 94.940434,26.6455521 L83.9442489,37.6417372 L83.9477767,37.6382094 Z" id="Path"></path>
            <path d="M98.9162763,37.0208425 L83.9513045,51.9858143 C82.6812928,53.2558261 81.9686751,54.9738698 81.9686751,56.7695253 L81.9686751,113.888304 L85.3518453,113.888304 L85.3518453,55.3689845 L99.7735343,40.9472955 C99.5406988,39.6208388 99.2514183,38.3120212 98.9162763,37.0208425 L98.9162763,37.0208425 Z" id="Path"></path>
            <path d="M45.1030562,28.3635958 L47.4949117,30.7554512 L73.3396508,4.9107121 C72.2813077,4.35684587 71.2053255,3.84178555 70.1046486,3.36200333 L45.1030562,28.3635958 L45.1030562,28.3635958 Z" id="Path"></path>
            <line x1="43.9071285" y1="29.5595235" x2="46.2989839" y2="31.951379" id="Path"></line>
            <path d="M41.515273,24.7758126 L43.9071285,27.167668 L68.4148275,2.65996906 C67.2541778,2.20488151 66.0723613,1.78859988 64.8729058,1.41817979 L41.515273,24.7758126 Z" id="Path"></path>
            <path d="M37.9274898,21.1880294 L40.3193453,23.5798848 L63.0172775,0.881952605 C61.7366823,0.539754994 60.4349203,0.243418919 59.1155192,3.55271368e-15 L37.9310176,21.1845016 L37.9274898,21.1880294 Z" id="Path"></path>
        </g>
    </g>
</svg>